<?xml version="1.0" encoding="UTF-8"?>
<svg version="1.1" viewBox="0 0 2048 2048" width="1280" height="1280" xmlns="http://www.w3.org/2000/svg">
<path transform="translate(573,576)" d="m0 0h36l21 2 11 4 10 8 6 12 3 13v5l82 1 715 1 20 1 15 3 13 7 13 12 8 10 5 11 2 8 1 12v684l-1 22-2 12-5 10-7 9-11 13-11 7-12 3-7 1-18 1-802 1h-158l-22-2-12-6-12-11-7-8-6-8-5-10-2-8-1-12-1-37v-655l1-21 5-12 7-10 11-12 14-9 10-4 13-3 29-2 1-8 7-14 6-7 11-9 7-3z" fill="#FBFBFC"/>
<path transform="translate(965,784)" d="m0 0h36l24 2 27 5 20 6 26 11 23 12 17 11 16 12 13 11 21 21 9 11 12 16 12 19 12 22 9 19 7 19 6 23 4 24 2 26v12l-3 28-5 23-8 29-6 16-13 27-12 19-10 14-9 11-10 11-7 8-12 12-11 9-13 10-19 12-24 13-13 6-11 4-3 2-11 3h-3v2l-7 2-8 1-5 2-27 4-10 1h-32l-22-2-19-3-12-3-7-2-12-5-18-7-10-4-9-5-12-7-11-6-11-8-13-9-21-18-5-5-10-11-13-17-11-16-12-20-13-27-7-18-7-24-4-22-2-21v-33l2-22 5-25 6-20 10-25 14-28 7-11 10-15 13-16 11-12 10-10 8-7 10-9 13-10 19-12 23-12 19-8 22-7 21-5 21-3z" fill="#7C869C"/>
<path transform="translate(968,875)" d="m0 0h29l17 2 19 4 18 6 25 12 21 14 13 11 14 14 12 16 8 13 12 23 6 19 4 19 2 15v30l-4 24-8 26-7 16-10 18-10 14-11 13-16 16-18 13-13 8-23 11-28 8-18 3h-36l-20-3-19-5-16-6-25-12-15-10-14-12-14-14-12-16-8-14-10-22-6-17-5-19-4-25v-27l2-15 5-19 6-17 8-17 12-19 8-10 9-10 18-18 17-12 15-9 24-10 20-6 16-3z" fill="#48E9F9"/>
<path transform="translate(434,873)" d="m0 0h46l58 1 54 2 22 2 11 4 5 5 5 10 1 4 1 16 1 37 1 105v76l-1 34-3 40-4 15-6 9-7 5-6 2-20 2-45 1h-40l-64-1-7-1-1-9-1-205z" fill="#BFC6CA"/>
<path transform="translate(1439,875)" d="m0 0h92v367h-162l-10-2-17-8-6-7-4-12-1-14-1-45v-226l1-27 8-19 2-2 4-1 34-2z" fill="#BFC6CA"/>
<path transform="translate(1247,669)" d="m0 0h147l39 1 13 2 8 6 6 8 3 8 1 8v59l-2 18-4 9-4 5-9 7-12 3-9 1-48 2-44 1h-57l-32-1-15-2-15-5-11-8-8-10-2-5-2-14-1-26 2-24 4-15 5-12 7-11 5-3 9-1z" fill="#BFC6CA"/>
<path transform="translate(633,691)" d="m0 0h12l12 4 9 6 7 7 8 13 3 9v11l-4 11-7 10-9 9-10 6-9 3-11 1-10-2-11-6-9-9-7-12-3-10v-12l4-12 7-11 10-8 14-7z" fill="#7191AD"/>
<path transform="translate(573,576)" d="m0 0h36l21 2 11 4 10 8 6 12 3 13v5h-3v2l-13 1h-90l-25-1-8-2 3-12 6-11 6-7 11-9 7-3z" fill="#7493AE"/>
<path transform="translate(633,691)" d="m0 0h12l12 4 9 6 7 7 8 13 3 9v11l-4 11-7 10-9 9-10 6-9 3-11 1-10-2-11-6-9-9-7-12-3-10v-12l4-12 7-11 10-8 14-7zm3 13-2 2-10 1-5 3-11 1-2 2-4 5-3 5-2 15 1 3h2v9l3 6h2v2h2l2 5 6 8 6 3 7 4h11l9-3 5-5 1-3h2v-3h2v-2h2v-5l-2-2h-3l-1-6-2-1-3 6-5 1 1-4h3l3-6 4-1-1-5 6-2 3-4v-2l3-1-6-3h-2l-2-4-3-2 1-5-6-8-3-1v-2z" fill="#7B869C"/>
<path transform="translate(573,576)" d="m0 0h36l21 2 11 4 5 4v2l-15 1-14-1h-5l-5 1-24 1-9 1-11-1h-15l-6-2 5-7 7-3z" fill="#8891A5"/>
<path transform="translate(924,1328)" d="m0 0 19 1 3 1h7l3-1h12l30 1 10 1 13-1 2-1 9-1h10l-4 2-27 4-10 1h-32l-22-2-19-3z" fill="#819CB3"/>
<path transform="translate(1032,1328)" d="m0 0h10l-4 2-27 4h-9v-1l7-2 12-1 2-1z" fill="#98ABBB"/>
<path transform="translate(657,615)" d="m0 0 1 3h2v2l-3 1h-9l-1-2z" fill="#7C869C"/>
<path transform="translate(924,1328)" d="m0 0 19 1 3 1v2l-13-1-9-2z" fill="#94A8BA"/>
<path transform="translate(791,1247)" d="m0 0 4 2 5 5 4 5-4-2-8-7z" fill="#7191AD"/>
<path transform="translate(653,728)" d="m0 0 4 1 1 2-3 3-4-1 1-4z" fill="#7C869C"/>
</svg>
